<?xml version="1.0" standalone="no"?>
<!DOCTYPE svg PUBLIC "-//W3C//DTD SVG 20010904//EN"
 "http://www.w3.org/TR/2001/REC-SVG-20010904/DTD/svg10.dtd">
<svg version="1.0" xmlns="http://www.w3.org/2000/svg"
 width="183.000000pt" height="201.000000pt" viewBox="0 0 183.000000 201.000000"
 preserveAspectRatio="xMidYMid meet">

<g transform="translate(0.000000,201.000000) scale(0.100000,-0.100000)"
fill="#7dd3fc" stroke="none">
<path d="M1612 1997 c-5 -6 -22 -37 -37 -67 -88 -176 -265 -386 -445 -530 -89
-70 -258 -179 -355 -227 -142 -72 -539 -192 -561 -170 -11 11 24 138 60 212
94 198 275 343 489 391 l77 18 0 93 0 93 -29 0 c-55 0 -218 -48 -297 -88 -242
-122 -411 -334 -480 -602 -14 -56 -19 -110 -19 -212 0 -75 3 -139 6 -143 11
-10 277 33 424 69 501 124 867 342 1062 632 103 155 150 318 136 472 -6 65
-14 80 -31 59z"/>
<path d="M1000 1718 l0 -95 81 -20 80 -19 70 64 c38 35 69 70 69 77 0 16 -168
72 -243 81 l-57 7 0 -95z"/>
<path d="M1562 1396 l-62 -74 35 -58 c31 -52 72 -163 90 -246 l5 -28 96 0 96
0 -6 48 c-12 83 -46 193 -82 266 -35 71 -94 166 -104 166 -3 0 -34 -33 -68
-74z"/>
<path d="M1355 1144 c-75 -63 -262 -179 -379 -234 -231 -111 -539 -197 -823
-231 -118 -14 -117 -12 -79 -105 l24 -59 159 1 c176 1 324 20 496 63 341 86
540 235 622 464 45 126 40 152 -20 101z"/>
<path d="M1624 803 c-38 -176 -92 -281 -204 -394 -69 -70 -102 -94 -177 -131
-50 -26 -126 -54 -167 -63 l-76 -17 0 -95 0 -96 55 7 c31 3 97 20 148 36 321
103 565 395 613 733 l6 47 -96 0 -96 0 -6 -27z"/>
<path d="M1048 595 c-48 -26 -187 -74 -286 -99 -146 -37 -291 -57 -454 -63
-85 -4 -148 -10 -148 -16 0 -31 130 -171 224 -242 106 -78 273 -147 395 -161
l61 -7 0 95 0 94 -80 18 c-44 10 -83 22 -85 27 -3 4 21 15 52 24 149 44 265
138 351 288 34 59 25 72 -30 42z"/>
</g>
</svg>
